<svg xmlns="http://www.w3.org/2000/svg" viewBox="0 0 128 128" width="128" height="128">
  <!-- Background Circle -->
  <circle cx="64" cy="64" r="60" fill="#2563eb" stroke="#1d4ed8" stroke-width="4"/>
  
  <!-- Rocket Shape -->
  <g transform="translate(64,64)">
    <!-- Main Body -->
    <ellipse cx="0" cy="0" rx="12" ry="30" fill="#ffffff"/>
    
    <!-- Rocket Tip -->
    <path d="M -8,-28 Q 0,-35 8,-28 L 6,-30 L -6,-30 Z" fill="#f59e0b"/>
    
    <!-- Rocket Wings -->
    <path d="M -12,15 L -20,25 L -12,20 Z" fill="#ef4444"/>
    <path d="M 12,15 L 20,25 L 12,20 Z" fill="#ef4444"/>
    
    <!-- Rocket Fire -->
    <ellipse cx="0" cy="32" rx="8" ry="6" fill="#f59e0b"/>
    <ellipse cx="0" cy="35" rx="5" ry="4" fill="#ef4444"/>
    
    <!-- Window -->
    <circle cx="0" cy="-8" r="4" fill="#06b6d4"/>
    <circle cx="0" cy="-8" r="2" fill="#0891b2"/>
    
    <!-- Deploy Symbol -->
    <g transform="translate(0, 8)">
      <rect x="-6" y="-2" width="12" height="2" fill="#10b981" rx="1"/>
      <rect x="-4" y="1" width="8" height="2" fill="#10b981" rx="1"/>
      <rect x="-2" y="4" width="4" height="2" fill="#10b981" rx="1"/>
    </g>
  </g>
  
  <!-- Decorative Elements -->
  <circle cx="25" cy="25" r="2" fill="#ffffff" opacity="0.7"/>
  <circle cx="103" cy="35" r="1.5" fill="#ffffff" opacity="0.5"/>
  <circle cx="20" cy="103" r="1" fill="#ffffff" opacity="0.6"/>
  <circle cx="108" cy="95" r="2" fill="#ffffff" opacity="0.4"/>
</svg>
